<?xml version="1.0" encoding="UTF-8"?>
<svg id="Layer_1" data-name="Layer 1" xmlns="http://www.w3.org/2000/svg" viewBox="0 0 240.67 78.52">
  <defs>
    <style>
      .cls-1 {
        fill: #3091cf;
        fill-rule: evenodd;
      }

      .cls-1, .cls-2 {
        stroke-width: 0px;
      }

      .cls-2 {
        fill: #1e283a;
      }
    </style>
  </defs>
  <path class="cls-1" d="M34.44,59.18l5.09,5.95,5.88-5.15,5.76-5.04c6.19-5.45,9.99-13.15,10.58-21.42.59-8.27-2.08-16.45-7.43-22.74C48.93,4.52,41.32.68,33.14.08c-8.18-.6-16.26,2.11-22.48,7.52C4.47,13.04.67,20.75.08,29.02c-.59,8.27,2.08,16.45,7.43,22.74l20.31,23.74c1.81,2.12,3.72,4.42,6.67,1.97l.09-.07.09-.08c2.82-2.61.85-4.84-.97-6.97l-1.27-1.48-19.04-22.27c-4-4.71-6-10.83-5.55-17.02.44-6.19,3.29-11.96,7.91-16.04,4.66-4.05,10.71-6.06,16.83-5.62,6.12.45,11.82,3.32,15.86,8,4,4.71,6,10.83,5.56,17.02-.44,6.19-3.29,11.96-7.91,16.04l-5.76,5.04-5.09-5.95-5.09-5.95-4.98-5.82c-1.3-1.55-1.95-3.56-1.8-5.59.15-2.03,1.07-3.92,2.58-5.27,1.54-1.32,3.52-1.97,5.53-1.82,2.01.15,3.88,1.08,5.21,2.61,1.11,1.32,1.75,2.98,1.82,4.71.07,1.73-.43,3.44-1.42,4.85-.05.07-.09.13-.14.19-.51.74-.75,1.62-.71,2.52.05.9.38,1.75.96,2.43,2.56,2.99,5.38.93,6.88-1.6,1.67-2.82,2.43-6.1,2.16-9.38-.27-3.28-1.55-6.38-3.67-8.88-2.68-3.1-6.47-5.01-10.53-5.31-4.07-.3-8.08,1.04-11.18,3.72-3.07,2.71-4.95,6.54-5.25,10.66-.29,4.11,1.03,8.17,3.68,11.31l4.98,5.82,5.09,5.94,5.09,5.95h0Z"/>
  <g>
    <path class="cls-2" d="M85.35,59.3c0,1.09-.4,2.01-1.19,2.76-.79.71-1.71,1.07-2.76,1.07-1.17,0-2.11-.36-2.82-1.07-.71-.75-1.07-1.67-1.07-2.76V19.23c0-1.09.38-1.99,1.13-2.7.75-.75,1.71-1.13,2.89-1.13,1,0,1.88.38,2.63,1.13.79.71,1.19,1.61,1.19,2.7v40.07Z"/>
    <path class="cls-2" d="M137.12,59.13c0,1.13-.37,2.09-1.11,2.88-.74.74-1.68,1.11-2.81,1.11s-2.07-.37-2.81-1.11c-.74-.78-1.11-1.74-1.11-2.88v-28.5c0-1.13.37-2.07,1.11-2.81.74-.78,1.68-1.18,2.81-1.18s2.07.39,2.81,1.18c.74.74,1.11,1.68,1.11,2.81v28.5Z"/>
    <path class="cls-2" d="M238.23,35.45c-1.58-2.76-3.72-4.91-6.44-6.44-2.67-1.58-5.67-2.37-9-2.37s-6.35.79-9.07,2.37c-2.67,1.53-4.82,3.68-6.44,6.44-1.58,2.72-2.37,5.87-2.37,9.46s.79,6.77,2.37,9.53c1.62,2.72,3.77,4.84,6.44,6.38,2.72,1.53,5.74,2.3,9.07,2.3s6.33-.77,9-2.3c2.72-1.53,4.86-3.66,6.44-6.38,1.62-2.76,2.43-5.94,2.43-9.53s-.81-6.75-2.43-9.46ZM231.44,50.38c-.88,1.53-2.09,2.73-3.63,3.6-1.5.87-3.17,1.3-5.02,1.3s-3.54-.43-5.08-1.3c-1.5-.87-2.71-2.07-3.63-3.6-.88-1.57-1.32-3.39-1.32-5.46s.44-3.93,1.32-5.46c.92-1.57,2.14-2.79,3.63-3.66,1.54-.87,3.24-1.3,5.08-1.3s3.52.43,5.02,1.3c1.54.87,2.75,2.09,3.63,3.66.92,1.53,1.39,3.35,1.39,5.46s-.46,3.89-1.39,5.46Z"/>
    <circle class="cls-2" cx="133.2" cy="19.32" r="3.92"/>
    <path class="cls-2" d="M174.21,39.97c-.64-8.02-6.51-13.31-15.01-13.31-2.97,0-5.6.65-7.82,1.83-.15-.24-.32-.46-.53-.67-.74-.78-1.68-1.18-2.81-1.18s-2.07.39-2.81,1.18c-.74.74-1.11,1.68-1.11,2.81v28.51c0,1.13.37,2.09,1.11,2.88.74.74,1.68,1.11,2.81,1.11s2.07-.37,2.81-1.11c.74-.78,1.11-1.74,1.11-2.88v-17.84c.08-5.91,4.55-6.8,7.24-6.8s7.16.89,7.23,6.8v17.84c0,1.13.37,2.09,1.11,2.88.74.74,1.68,1.11,2.81,1.11s2.07-.37,2.81-1.11c.74-.78,1.11-1.74,1.11-2.88,0,0-.02-18.93-.06-19.16Z"/>
    <path class="cls-2" d="M201.14,16.01c-4.97-1.21-8.98-.63-11.93,1.72-4.06,3.23-4.1,8.4-4.09,8.98v2.2h-3.22c-1.14,0-2.09.38-2.85,1.14-.76.71-1.14,1.64-1.14,2.78s.38,2.09,1.14,2.85c.76.71,1.71,1.07,2.85,1.07h3.22v22.4c0,1.13.37,2.09,1.11,2.88.74.74,1.68,1.11,2.81,1.11s2.07-.37,2.81-1.11c.74-.78,1.11-1.74,1.11-2.88v-22.4h5.27c1.14,0,2.09-.36,2.85-1.07.76-.76,1.14-1.71,1.14-2.85s-.38-2.06-1.14-2.78c-.76-.76-1.71-1.14-2.85-1.14h-5.27v-2.48c.04-.48.24-1.88,1.16-2.59.93-.72,2.77-.8,5.17-.22,2.1.51,4.22-.78,4.73-2.88.51-2.1-.78-4.22-2.88-4.73Z"/>
    <path class="cls-2" d="M106.89,15.39h-10.63v.02c-1.13.02-2.06.39-2.79,1.12-.75.71-1.13,1.61-1.13,2.7v40.07c0,1.09.36,2.01,1.07,2.76.71.71,1.65,1.07,2.82,1.07,1.05,0,1.97-.36,2.76-1.07.79-.75,1.19-1.67,1.19-2.76v-13.14h6.71c8.48,0,15.38-6.9,15.38-15.38s-6.9-15.38-15.38-15.38ZM106.89,38.31h-6.7v-15.06h6.7c4.15,0,7.53,3.38,7.53,7.53s-3.38,7.53-7.53,7.53Z"/>
  </g>
</svg>