<?xml version="1.0" encoding="UTF-8"?>
<svg id="NETD_Sublogo" xmlns="http://www.w3.org/2000/svg" width="121.6164mm" height="26.5236mm" viewBox="0 0 344.7395 75.1849">
  <defs>
    <style>
      .cls-1 {
        fill: #00008c;
      }

      .cls-2 {
        fill: #00008c;
      }
    </style>
  </defs>
  <path class="cls-1" d="M89.931,18.8201h-3.0251V4.6329h-4.7837v-2.5559h12.5925v2.5559h-4.7837v14.1873Z"/>
  <path class="cls-1" d="M110.5433,12.9107c0,1.157-.2463,2.2007-.7388,3.1306-.4924.9302-1.2393,1.665-2.2395,2.2041-1.0005.5396-2.2668.8091-3.7988.8091-2.1731,0-3.8223-.5664-4.948-1.7-1.1255-1.1333-1.6885-2.6301-1.6885-4.4907V2.077h3.0017v10.4819c0,1.3604.3125,2.3569.938,2.99.625.6331,1.5554.9497,2.7905.9497.8755,0,1.583-.1484,2.1223-.4456.5393-.2969.938-.7463,1.1958-1.3484.2581-.6018.387-1.325.387-2.1692V2.077h2.9783v10.8337Z"/>
  <path class="cls-1" d="M128.412,10.2139c0,1.8918-.3518,3.4788-1.0554,4.7605-.7034,1.282-1.7083,2.2434-3.0132,2.8843-1.3057.6411-2.865.9614-4.6785.9614h-4.9712V2.077h5.4167c1.7197,0,3.2009.3127,4.4438.938,1.2429.6255,2.1963,1.5359,2.8608,2.7319.6643,1.1958.9968,2.6851.9968,4.467ZM125.2462,10.3079c0-1.2976-.2034-2.3687-.6099-3.2129-.4067-.8442-1.0046-1.4731-1.7939-1.8877-.7896-.4141-1.7627-.6213-2.9194-.6213h-2.1809v11.7014h1.7822c1.9229,0,3.3569-.4961,4.303-1.489.9458-.9924,1.4189-2.4893,1.4189-4.4905Z"/>
  <path class="cls-1" d="M135.1185,1.045h2.2278v23.2156h-2.2278V1.045Z"/>
  <path class="cls-1" d="M159.1078,18.8201h-3.7285l-7.9263-13.1318h-.0938c.0312.4688.0586.9614.082,1.4771.0234.5161.0469,1.0437.0706,1.583.0234.5393.0427,1.0828.0586,1.6299v8.4419h-2.6968V2.077h3.7051l7.9026,13.0381h.0703c-.0156-.4062-.0315-.8677-.0469-1.3835-.0156-.5159-.0352-1.0437-.0586-1.5828-.0234-.5396-.0432-1.0591-.0586-1.5596V2.077h2.7202v16.7432Z"/>
  <path class="cls-1" d="M172.9902,18.8201h-9.521V2.077h9.521v2.509h-6.5195v4.2678h6.0972v2.5093h-6.0972v4.9243h6.5195v2.5327Z"/>
  <path class="cls-1" d="M182.5576,18.8201h-3.0249V4.6329h-4.7837v-2.5559h12.5923v2.5559h-4.7837v14.1873Z"/>
  <path class="cls-1" d="M203.5215,10.2139c0,1.8918-.3516,3.4788-1.0552,4.7605-.7036,1.282-1.7085,2.2434-3.0132,2.8843-1.3057.6411-2.8652.9614-4.6787.9614h-4.9712V2.077h5.417c1.7197,0,3.2007.3127,4.4438.938,1.2427.6255,2.1963,1.5359,2.8608,2.7319.6641,1.1958.9966,2.6851.9966,4.467ZM200.3559,10.3079c0-1.2976-.2036-2.3687-.6099-3.2129-.4067-.8442-1.0049-1.4731-1.7939-1.8877-.7896-.4141-1.7627-.6213-2.9194-.6213h-2.1812v11.7014h1.7822c1.9229,0,3.3569-.4961,4.3032-1.489.9458-.9924,1.4189-2.4893,1.4189-4.4905Z"/>
  <path class="cls-1" d="M91.1974,28.7948c-1.7981,0-3.2126.6021-4.2446,1.8057-1.0317,1.2041-1.5476,2.8533-1.5476,4.948,0,2.0793.4807,3.7249,1.4421,4.9363.9614,1.2117,2.4036,1.8174,4.3267,1.8174.7346,0,1.4304-.0623,2.0869-.1875.6567-.125,1.2974-.2815,1.9229-.4692v1.8291c-.6255.2346-1.2703.4067-1.9346.5161-.6646.1091-1.458.1641-2.3801.1641-1.7041,0-3.127-.3518-4.2678-1.0552-1.1414-.7036-1.9973-1.7039-2.5679-3.0017-.5708-1.2974-.856-2.8215-.856-4.5728,0-1.6882.3086-3.1775.9263-4.467.6174-1.29,1.5278-2.2983,2.7319-3.0251,1.2036-.7271,2.6653-1.0906,4.3853-1.0906,1.7664,0,3.3064.3284,4.6196.9849l-.8442,1.7822c-.5159-.2344-1.0903-.4453-1.7236-.6331-.6331-.1877-1.325-.2815-2.0752-.2815Z"/>
  <path class="cls-1" d="M100.6239,31.3275c0,.6255-.0393,1.2117-.1172,1.7588h.1406c.4062-.6409.9573-1.1255,1.6533-1.4541.6953-.3281,1.4497-.4922,2.2627-.4922,1.532,0,2.6812.3633,3.4473,1.0903.7659.7271,1.1489,1.8958,1.1489,3.5059v8.1841h-2.04v-8.0435c0-2.0166-.938-3.0249-2.814-3.0249-1.407,0-2.3726.3948-2.896,1.1841-.5242.7896-.7856,1.9192-.7856,3.3887v6.4956h-2.0637v-17.8223h2.0637v5.2295Z"/>
  <path class="cls-1" d="M117.8126,31.14c1.532,0,2.6653.3364,3.4001,1.0083.7346.6724,1.1023,1.7432,1.1023,3.2126v8.5593h-1.501l-.3987-1.7822h-.0938c-.5474.688-1.1218,1.1958-1.7236,1.5242s-1.4343.4924-2.4973.4924c-1.1414,0-2.0872-.3008-2.8374-.9028-.7505-.6016-1.1257-1.5437-1.1257-2.8257,0-1.2505.4924-2.2161,1.4775-2.896.9849-.6802,2.501-1.0513,4.5493-1.114l2.1338-.0703v-.7502c0-1.0474-.2268-1.7744-.6799-2.1812-.4536-.4062-1.0945-.6096-1.9231-.6096-.6565,0-1.282.0979-1.876.2932-.5942.1958-1.1489.4185-1.6648.6685l-.6333-1.5479c.5471-.2969,1.196-.5513,1.9465-.7622.7502-.2109,1.5317-.3164,2.345-.3164ZM118.4222,37.8465c-1.5635.0627-2.6462.313-3.2478.7505-.6021.438-.9028,1.0552-.9028,1.8525,0,.7036.2146,1.2192.6448,1.5479.4299.3281.981.4922,1.6533.4922,1.063,0,1.9463-.293,2.6499-.8794.7034-.5862,1.0552-1.489,1.0552-2.7085v-1.1255l-1.8525.0703Z"/>
  <path class="cls-1" d="M127.2628,26.6375c.3125,0,.5898.1055.8323.3164.2424.2112.3635.5435.3635.9966,0,.438-.1211.7664-.3635.9851-.2424.219-.5198.3284-.8323.3284-.3442,0-.6333-.1094-.8677-.3284-.2346-.2188-.3518-.5471-.3518-.9851,0-.4531.1172-.7854.3518-.9966.2344-.2109.5234-.3164.8677-.3164ZM128.2711,31.3509v12.5693h-2.0637v-12.5693h2.0637Z"/>
  <path class="cls-1" d="M138.12,31.1165c.2346,0,.4885.0117.7622.0352.2732.0234.5117.0586.7151.1055l-.2578,1.8994c-.2034-.0469-.4263-.0857-.6685-.1172-.2424-.0312-.4729-.0469-.6917-.0469-.6414,0-1.2429.1758-1.8057.5276s-1.0125.844-1.3484,1.4773c-.3364.6333-.5042,1.3718-.5042,2.2161v6.7068h-2.0637v-12.5693h1.6885l.2346,2.2981h.0938c.4062-.6877.9299-1.2815,1.571-1.7822.6409-.5002,1.3989-.7502,2.2747-.7502Z"/>
  <path class="cls-1" d="M158.9667,37.6121c0,2.0793-.5276,3.6897-1.5828,4.8306-1.0554,1.1416-2.4822,1.7119-4.2798,1.7119-1.1101,0-2.0986-.2539-2.9663-.7622-.8677-.5078-1.5518-1.2505-2.052-2.2275-.5005-.9771-.7502-2.1611-.7502-3.5527,0-2.0791.5234-3.6816,1.571-4.8074,1.0474-1.1255,2.47-1.6882,4.2681-1.6882,1.1409,0,2.1455.2542,3.0132.762.8677.5083,1.5479,1.2429,2.0403,2.2043s.7385,2.1379.7385,3.5293ZM149.4693,37.6121c0,1.4854.2932,2.6616.8794,3.5293.5864.8677,1.5203,1.3013,2.8025,1.3013,1.2661,0,2.196-.4336,2.7905-1.3013.5938-.8677.8911-2.0439.8911-3.5293s-.2974-2.6499-.8911-3.4941c-.5945-.8442-1.5325-1.2661-2.8142-1.2661s-2.2122.4219-2.7905,1.2661-.8677,2.009-.8677,3.4941Z"/>
  <path class="cls-1" d="M168.0185,32.9456h-3.166v10.9746h-2.0635v-10.9746h-2.2041v-.9614l2.2041-.7036v-.7271c0-1.6255.3594-2.7942,1.0786-3.5059.7192-.7109,1.7197-1.0669,3.0015-1.0669.5005,0,.9575.0435,1.3721.1289.4141.0864.77.1841,1.0669.2935l-.5391,1.6179c-.2505-.0781-.5396-.156-.8677-.2346-.3286-.0781-.665-.1172-1.0083-.1172-.6885,0-1.2002.231-1.5361.6919-.3364.4612-.5044,1.1841-.5044,2.1689v.8208h3.166v1.5947Z"/>
  <path class="cls-1" d="M190.0845,35.3844c0,2.8298-.77,4.9597-2.3101,6.3901s-3.6855,2.1458-6.437,2.1458h-4.6665v-16.7434h5.1592c1.6885,0,3.1499.3127,4.3853.938,1.2349.6255,2.1885,1.5442,2.8608,2.7554.6719,1.2117,1.0083,2.7166,1.0083,4.5142ZM187.8564,35.4547c0-2.2356-.5508-3.8728-1.6528-4.9128-1.1025-1.0396-2.6616-1.5593-4.6782-1.5593h-2.7437v13.1321h2.2744c4.5337,0,6.8003-2.2197,6.8003-6.6599Z"/>
  <path class="cls-1" d="M194.5635,26.6375c.3125,0,.5898.1055.832.3164.2427.2112.3638.5435.3638.9966,0,.438-.1211.7664-.3638.9851-.2422.219-.5195.3284-.832.3284-.3442,0-.6333-.1094-.8677-.3284-.2349-.2188-.3521-.5471-.3521-.9851,0-.4531.1172-.7854.3521-.9966.2344-.2109.5234-.3164.8677-.3164ZM195.5718,31.3509v12.5693h-2.064v-12.5693h2.064Z"/>
  <path class="cls-1" d="M207.7422,40.4495c0,1.2192-.4536,2.1421-1.3604,2.7671-.9067.6255-2.126.938-3.6582.938-.8755,0-1.6294-.0703-2.2627-.2109-.6333-.1409-1.1924-.3359-1.6768-.5864v-1.876c.5.2502,1.106.4807,1.8174.6919.7114.2109,1.4341.3164,2.1689.3164,1.0474,0,1.8057-.1677,2.2749-.5039.4688-.3362.7036-.7856.7036-1.3486,0-.3125-.0864-.5938-.2583-.8442-.1719-.2498-.4805-.5-.9263-.7502-.4453-.2498-1.0825-.5315-1.9111-.8442-.813-.3125-1.5088-.6252-2.0869-.938-.5786-.3125-1.0239-.6877-1.3364-1.1257-.313-.4375-.4692-1-.4692-1.6882,0-1.063.4341-1.8838,1.3013-2.4622.8677-.5784,2.0054-.8677,3.4121-.8677.7661,0,1.481.0742,2.146.2227.6641.1489,1.2856.356,1.8643.6216l-.7036,1.6414c-.5317-.2188-1.0869-.4065-1.665-.5627-.5786-.1562-1.1724-.2346-1.7822-.2346-.8442,0-1.4893.137-1.9346.4104-.4458.2737-.6685.645-.6685,1.1138,0,.3442.1016.6372.3052.8794.2026.2427.543.4771,1.02.7036.4766.2268,1.1138.4966,1.9111.8091.7974.2971,1.4771.6021,2.04.9146.563.313.9927.6919,1.2896,1.1372.2969.4456.4458,1.0049.4458,1.6768Z"/>
  <path class="cls-1" d="M214.9883,42.4661c.3125,0,.6328-.0269.9614-.082.3281-.0547.5938-.1133.7969-.1758v1.571c-.2188.1096-.5312.1995-.938.2698s-.7969.1055-1.1724.1055c-.6567,0-1.2627-.1135-1.8174-.3398-.5552-.2266-1.0044-.6216-1.3481-1.1846-.3442-.5625-.5161-1.3521-.5161-2.3682v-7.3164h-1.7822v-.9849l1.8057-.8208.8208-2.6733h1.2192v2.8843h3.6348v1.5947h-3.6348v7.2695c0,.7661.1836,1.333.5513,1.7.3672.3674.8403.551,1.4189.551Z"/>
  <path class="cls-1" d="M225.1182,31.1165c.2344,0,.4883.0117.7622.0352.2729.0234.5117.0586.7148.1055l-.2578,1.8994c-.2031-.0469-.4263-.0857-.6685-.1172-.2422-.0312-.4727-.0469-.6914-.0469-.6416,0-1.2432.1758-1.8057.5276-.563.3518-1.0127.844-1.3486,1.4773-.3364.6333-.5039,1.3718-.5039,2.2161v6.7068h-2.064v-12.5693h1.6885l.2349,2.2981h.0938c.4062-.6877.9297-1.2815,1.5708-1.7822.6411-.5002,1.3989-.7502,2.2749-.7502Z"/>
  <path class="cls-1" d="M229.9956,26.6375c.3125,0,.5898.1055.8325.3164.2422.2112.3633.5435.3633.9966,0,.438-.1211.7664-.3633.9851-.2427.219-.52.3284-.8325.3284-.3442,0-.6333-.1094-.8677-.3284-.2344-.2188-.3516-.5471-.3516-.9851,0-.4531.1172-.7854.3516-.9966.2344-.2109.5234-.3164.8677-.3164ZM231.0039,31.3509v12.5693h-2.0635v-12.5693h2.0635Z"/>
  <path class="cls-1" d="M237.0542,30.4364c0,.5317-.0117,1.0283-.0352,1.4893-.0234.4612-.0513.8247-.082,1.0903h.1172c.3594-.5312.8516-.9771,1.4771-1.3367.625-.3596,1.4307-.5393,2.4155-.5393,1.563,0,2.8179.5435,3.7637,1.6296.9458,1.0867,1.4189,2.7085,1.4189,4.866s-.4771,3.7834-1.4307,4.8774c-.9536,1.0947-2.2041,1.6416-3.752,1.6416-.9849,0-1.7905-.1799-2.4155-.5393-.6255-.3596-1.1177-.7893-1.4771-1.2898h-.1646l-.4219,1.5947h-1.4775v-17.8223h2.064v4.3384ZM240.5952,32.8519c-1.3291,0-2.2515.3831-2.7671,1.1489-.5161.7661-.7739,1.9543-.7739,3.5645v.0938c0,1.5476.2539,2.7319.7622,3.5527.5078.8208,1.4497,1.231,2.8257,1.231,1.1255,0,1.9653-.4141,2.5205-1.2427.5547-.8286.8325-2.0244.8325-3.5879,0-3.1733-1.1333-4.7603-3.3999-4.7603Z"/>
  <path class="cls-1" d="M259.9175,31.3509v12.5693h-1.6885l-.3047-1.665h-.0938c-.4067.6567-.9697,1.1372-1.6885,1.4421-.7192.3049-1.4854.4573-2.2983.4573-1.5166,0-2.6577-.3635-3.4233-1.0903-.7666-.7271-1.1494-1.8877-1.1494-3.4824v-8.231h2.0874v8.0903c0,2.0012.9297,3.0015,2.7905,3.0015,1.3911,0,2.3564-.3906,2.896-1.1724.5391-.7817.8091-1.9072.8091-3.377v-6.5425h2.0635Z"/>
  <path class="cls-1" d="M268.1015,42.4661c.3125,0,.6328-.0269.9614-.082.3281-.0547.5938-.1133.7969-.1758v1.571c-.2188.1096-.5312.1995-.938.2698s-.7969.1055-1.1724.1055c-.6567,0-1.2627-.1135-1.8174-.3398-.5552-.2266-1.0044-.6216-1.3481-1.1846-.3442-.5625-.5161-1.3521-.5161-2.3682v-7.3164h-1.7822v-.9849l1.8057-.8208.8208-2.6733h1.2192v2.8843h3.6348v1.5947h-3.6348v7.2695c0,.7661.1836,1.333.5513,1.7.3672.3674.8403.551,1.4189.551Z"/>
  <path class="cls-1" d="M277.2231,31.1165c1.0786,0,2.0049.2344,2.7788.7034s1.3682,1.1296,1.7822,1.9817.6216,1.8486.6216,2.9897v1.2427h-8.6064c.0312,1.4229.395,2.5056,1.0908,3.248.6953.7427,1.6685,1.1138,2.9194,1.1138.7974,0,1.5044-.074,2.1221-.2227.6177-.1484,1.2549-.3635,1.9111-.645v1.8057c-.6411.2815-1.2744.4888-1.8994.6216-.6255.1326-1.3682.1992-2.2275.1992-1.1885,0-2.2397-.2422-3.1543-.7271-.9146-.4844-1.626-1.2075-2.1338-2.1689-.5083-.9614-.7622-2.1377-.7622-3.5293,0-1.3755.2305-2.5562.6919-3.541.4609-.9849,1.1099-1.7429,1.9463-2.2744.8359-.5315,1.8096-.7974,2.9194-.7974ZM277.1997,32.8048c-.9849,0-1.7627.3167-2.333.95-.5708.6328-.9111,1.5122-1.02,2.6379h6.4019c-.0161-1.063-.2661-1.9265-.7505-2.5911-.4849-.6646-1.251-.9968-2.2983-.9968Z"/>
  <path class="cls-1" d="M290.0503,44.1546c-1.5635,0-2.814-.543-3.752-1.6299-.938-1.0864-1.4072-2.7085-1.4072-4.8657s.4727-3.7871,1.4189-4.8894c.9453-1.1023,2.2002-1.6531,3.7637-1.6531.9692,0,1.7622.1797,2.3799.5391.6177.3599,1.1216.7974,1.5127,1.3135h.1406c-.0156-.2031-.043-.5044-.082-.9028-.0391-.3989-.0586-.7153-.0586-.9497v-5.0186h2.0635v17.8223h-1.6646l-.3052-1.6885h-.0938c-.375.5317-.8755.9849-1.501,1.3601s-1.4302.5627-2.415.5627ZM290.3784,42.4427c1.3286,0,2.2632-.3633,2.8022-1.0903.5396-.7271.8091-1.8252.8091-3.2949v-.375c0-1.563-.2578-2.7632-.7739-3.5996-.5156-.8362-1.4697-1.2544-2.8608-1.2544-1.1104,0-1.9424.4417-2.4976,1.3247-.5547.8833-.8325,2.0676-.8325,3.5527,0,1.5007.2778,2.6655.8325,3.4941.5552.8286,1.3955,1.2427,2.521,1.2427Z"/>
  <path class="cls-1" d="M310.8735,31.14c1.5322,0,2.6655.3364,3.4004,1.0083.7344.6724,1.1021,1.7432,1.1021,3.2126v8.5593h-1.501l-.3984-1.7822h-.0938c-.5474.688-1.1221,1.1958-1.7236,1.5242-.6021.3284-1.4346.4924-2.4976.4924-1.1411,0-2.0869-.3008-2.8374-.9028-.7505-.6016-1.1255-1.5437-1.1255-2.8257,0-1.2505.4922-2.2161,1.4775-2.896.9849-.6802,2.501-1.0513,4.5493-1.114l2.1338-.0703v-.7502c0-1.0474-.2271-1.7744-.6802-2.1812-.4536-.4062-1.0942-.6096-1.9229-.6096-.6567,0-1.2822.0979-1.876.2932-.5942.1958-1.1489.4185-1.665.6685l-.6333-1.5479c.5474-.2969,1.1963-.5513,1.9468-.7622.75-.2109,1.5317-.3164,2.3447-.3164ZM311.4834,37.8465c-1.5635.0627-2.6465.313-3.248.7505-.6021.438-.9028,1.0552-.9028,1.8525,0,.7036.2148,1.2192.645,1.5479.4297.3281.981.4922,1.6533.4922,1.063,0,1.9463-.293,2.6499-.8794.7031-.5862,1.0552-1.489,1.0552-2.7085v-1.1255l-1.8525.0703Z"/>
  <path class="cls-1" d="M325.3183,31.1165c1.501,0,2.6343.3633,3.4004,1.0903.7656.7271,1.1489,1.9033,1.1489,3.5293v8.1841h-2.04v-8.0435c0-2.0166-.938-3.0249-2.814-3.0249-1.3916,0-2.353.3906-2.8843,1.1724-.5317.7817-.7974,1.9075-.7974,3.377v6.519h-2.064v-12.5693h1.665l.3052,1.7119h.1172c.4062-.6567.9692-1.145,1.6885-1.4658.7188-.3201,1.4771-.4805,2.2744-.4805Z"/>
  <path class="cls-1" d="M338.2158,44.1546c-1.5635,0-2.814-.543-3.752-1.6299-.938-1.0864-1.4067-2.7085-1.4067-4.8657s.4727-3.7871,1.4185-4.8894,2.2002-1.6531,3.7637-1.6531c.9692,0,1.7627.1797,2.3804.5391.6172.3599,1.1216.7974,1.5127,1.3135h.1406c-.0161-.2031-.0435-.5044-.082-.9028-.0396-.3989-.0586-.7153-.0586-.9497v-5.0186h2.0635v17.8223h-1.665l-.3047-1.6885h-.0938c-.3755.5317-.876.9849-1.501,1.3601-.6255.3752-1.4307.5627-2.4155.5627ZM338.5444,42.4427c1.3286,0,2.2627-.3633,2.8022-1.0903.5391-.7271.8091-1.8252.8091-3.2949v-.375c0-1.563-.2583-2.7632-.7739-3.5996-.5161-.8362-1.4697-1.2544-2.8608-1.2544-1.1104,0-1.9429.4417-2.4976,1.3247-.5552.8833-.8325,2.0676-.8325,3.5527,0,1.5007.2773,2.6655.8325,3.4941.5547.8286,1.395,1.2427,2.521,1.2427Z"/>
  <path class="cls-1" d="M97.2943,69.0201h-2.4622l-8.958-13.906h-.0938c.031.5476.0703,1.2275.1172,2.0403.0469.8132.0703,1.6497.0703,2.509v9.3567h-1.9463v-16.7434h2.4387l8.9346,13.8589h.0938c-.0159-.2498-.0352-.625-.0586-1.1255-.0234-.5-.0469-1.0471-.0703-1.6416-.0234-.5938-.0352-1.1409-.0352-1.6414v-9.4504h1.9697v16.7434Z"/>
  <path class="cls-1" d="M106.4161,56.2164c1.0786,0,2.0049.2346,2.7788.7034.7739.4692,1.3679,1.1299,1.7822,1.9817.4141.8523.6213,1.8489.6213,2.99v1.2427h-8.6062c.0312,1.4229.3948,2.5054,1.0906,3.2478.6953.7429,1.6685,1.114,2.9194,1.114.7974,0,1.5046-.0742,2.1223-.2229.6174-.1482,1.2546-.3635,1.9111-.6448v1.8057c-.6411.2812-1.2744.4888-1.8994.6213-.6255.1326-1.3682.1995-2.2278.1995-1.1882,0-2.2395-.2422-3.1541-.7271-.9146-.4844-1.626-1.2075-2.134-2.1692-.5081-.9614-.762-2.1375-.762-3.5291,0-1.3755.2305-2.5562.6917-3.541.4609-.9849,1.1099-1.7432,1.9465-2.2747.8359-.5315,1.8093-.7974,2.9194-.7974ZM106.3927,57.9046c-.9849,0-1.7627.3169-2.3333.95-.5708.6331-.9109,1.5125-1.02,2.6379h6.4019c-.0159-1.063-.2661-1.9263-.7505-2.5911-.4849-.6643-1.251-.9968-2.2981-.9968Z"/>
  <path class="cls-1" d="M118.9855,67.5662c.3125,0,.6331-.0271.9614-.082.3281-.0547.5938-.1133.7971-.1758v1.5708c-.219.1099-.5315.1995-.938.27-.4067.0703-.7971.1055-1.1724.1055-.6567,0-1.2627-.1138-1.8174-.3401-.5552-.2263-1.0046-.6213-1.3484-1.1843-.344-.5627-.5159-1.3521-.5159-2.3684v-7.3164h-1.7822v-.9849l1.8057-.8208.8208-2.6731h1.2192v2.8843h3.6348v1.5945h-3.6348v7.2695c0,.7661.1836,1.333.551,1.7.3672.3677.8403.5513,1.4189.5513Z"/>
  <path class="cls-1" d="M131.3666,61.9149c-.2034-.6411-.3792-1.27-.5276-1.8877-.1487-.6177-.262-1.0981-.3401-1.4424h-.0938c-.0627.3442-.1641.8247-.3049,1.4424-.1406.6177-.3206,1.2544-.5393,1.9111l-2.2512,7.0583h-2.345l-3.447-12.5691h2.1338l1.7354,6.7065c.1719.6724.3359,1.3525.4924,2.04.156.6882.2656,1.2588.3284,1.7119h.0938c.0623-.2656.1367-.5938.2227-.9849.0859-.3906.1836-.8008.2932-1.231.1091-.4299.2188-.8169.3284-1.1609l2.2278-7.0818h2.2512l2.1572,7.0818c.1719.5315.3401,1.1101.5042,1.7354.1643.6252.2776,1.1648.3401,1.6179h.0938c.0469-.3906.1526-.9297.3167-1.6179.1641-.6877.3401-1.3914.5276-2.1106l1.7588-6.7065h2.1106l-3.4941,12.5691h-2.4153l-2.1575-7.0818Z"/>
  <path class="cls-1" d="M152.6122,62.712c0,2.0793-.5276,3.6897-1.5828,4.8308-1.0554,1.1414-2.4822,1.7119-4.2798,1.7119-1.1101,0-2.0986-.2539-2.9663-.7622-.8677-.5078-1.5518-1.2505-2.052-2.2278-.5005-.9768-.7502-2.1609-.7502-3.5527,0-2.0789.5234-3.6816,1.571-4.8074,1.0474-1.1255,2.47-1.6882,4.2681-1.6882,1.1409,0,2.1455.2542,3.0132.762.8677.5083,1.5479,1.2432,2.0403,2.2046s.7385,2.1377.7385,3.5291ZM143.1149,62.712c0,1.4856.2932,2.6616.8794,3.5293.5864.8677,1.5203,1.3015,2.8025,1.3015,1.2661,0,2.196-.4338,2.7905-1.3015.5938-.8677.8911-2.0437.8911-3.5293s-.2974-2.6497-.8911-3.4939c-.5945-.8442-1.5325-1.2664-2.8142-1.2664s-2.2122.4221-2.7905,1.2664-.8677,2.0088-.8677,3.4939Z"/>
  <path class="cls-1" d="M161.7344,56.2164c.2344,0,.4883.0117.7622.0352.2729.0234.5117.0586.7148.1057l-.2578,1.8994c-.2031-.0469-.4263-.0859-.6685-.1174-.2422-.031-.4727-.0469-.6914-.0469-.6416,0-1.2432.176-1.8058.5276-.5627.3518-1.0125.8442-1.3484,1.4775-.3364.6331-.5042,1.3716-.5042,2.2158v6.7068h-2.0637v-12.5691h1.6885l.2346,2.2979h.0938c.4062-.6875.9299-1.2815,1.571-1.7822.641-.5,1.3988-.7502,2.2748-.7502Z"/>
  <path class="cls-1" d="M167.5967,60.5076c0,.2505-.0117.5786-.0352.9849-.0234.4067-.0435.7585-.0586,1.0554h.0938c.0938-.125.2344-.3049.4219-.5393.1875-.2346.3789-.4727.5747-.7153.1953-.2422.3633-.4414.5039-.5979l4.0103-4.2444h2.415l-5.0884,5.3701,5.4404,7.199h-2.4858l-4.3618-5.8625-1.4302,1.2429v4.6196h-2.0405v-17.822h2.0405v9.3096Z"/>
  <path class="cls-1" d="M182.9326,56.2164c1.0786,0,2.0049.2346,2.7788.7034.7739.4692,1.3682,1.1299,1.7822,1.9817.4141.8523.6216,1.8489.6216,2.99v1.2427h-8.6064c.0312,1.4229.395,2.5054,1.0908,3.2478.6953.7429,1.6685,1.114,2.9194,1.114.7974,0,1.5044-.0742,2.1221-.2229.6177-.1482,1.2549-.3635,1.9111-.6448v1.8057c-.6411.2812-1.2744.4888-1.8994.6213-.6255.1326-1.3682.1995-2.2275.1995-1.1885,0-2.2397-.2422-3.1543-.7271-.9146-.4844-1.626-1.2075-2.1338-2.1692-.5083-.9614-.7622-2.1375-.7622-3.5291,0-1.3755.2305-2.5562.6919-3.541.4609-.9849,1.1099-1.7432,1.9463-2.2747.8359-.5315,1.8096-.7974,2.9194-.7974ZM182.9092,57.9046c-.9849,0-1.7627.3169-2.333.95-.5708.6331-.9111,1.5125-1.02,2.6379h6.4019c-.0161-1.063-.2661-1.9263-.7505-2.5911-.4849-.6643-1.251-.9968-2.2983-.9968Z"/>
  <path class="cls-1" d="M195.7598,69.2547c-1.5635,0-2.814-.543-3.752-1.6299-.938-1.0864-1.4067-2.7085-1.4067-4.8657s.4727-3.7874,1.4185-4.8896c.9458-1.1021,2.2002-1.6531,3.7637-1.6531.9692,0,1.7627.1799,2.3804.5393.6172.3599,1.1216.7974,1.5127,1.3132h.1406c-.0161-.2029-.0435-.5042-.082-.9028-.0396-.3987-.0586-.7151-.0586-.9497v-5.0183h2.0635v17.822h-1.665l-.3047-1.6882h-.0938c-.3755.5315-.876.9849-1.501,1.3599-.6255.3752-1.4307.563-2.4155.563ZM196.0884,67.5428c1.3286,0,2.2627-.3635,2.8022-1.0903.5391-.7271.8091-1.8252.8091-3.2949v-.375c0-1.5632-.2583-2.7632-.7739-3.5996-.5161-.8364-1.4697-1.2546-2.8608-1.2546-1.1104,0-1.9429.4417-2.4976,1.325-.5552.8833-.8325,2.0674-.8325,3.5527,0,1.5005.2773,2.6655.8325,3.4939.5547.8289,1.395,1.2429,2.521,1.2429Z"/>
  <path class="cls-1" d="M221.6015,64.5411c0,1.4856-.5396,2.6423-1.6182,3.4707-1.0786.8289-2.5327,1.2429-4.3618,1.2429-.938,0-1.8057-.0703-2.603-.2112s-1.4619-.3359-1.9932-.5862v-2.0166c.563.25,1.2622.4771,2.0986.6799.8364.2034,1.7002.3049,2.5913.3049,1.2505,0,2.1929-.2422,2.8257-.7271.6333-.4844.9497-1.1411.9497-1.9697,0-.5471-.1172-1.0083-.3516-1.3838-.2344-.375-.6372-.7227-1.2075-1.0435-.5713-.3203-1.3643-.6602-2.3804-1.02-1.4229-.5159-2.4976-1.1489-3.2246-1.8994-.7266-.7505-1.0903-1.7742-1.0903-3.072,0-.8909.2266-1.6531.6802-2.2864.4531-.6331,1.0825-1.1216,1.8877-1.4656.8052-.3435,1.7314-.5159,2.7788-.5159.9224,0,1.7666.0859,2.5327.2578.7656.1724,1.4614.3989,2.0869.6802l-.6567,1.8057c-.5781-.25-1.2075-.4609-1.8877-.6333-.6797-.1719-1.3872-.2578-2.1221-.2578-1.0474,0-1.8369.2227-2.3687.6685-.5312.4453-.7969,1.0356-.7969,1.7705,0,.5625.1172,1.0317.3516,1.4067.2344.3752.6172.7117,1.1489,1.0083.5312.2974,1.2505.6179,2.1577.9614.9849.3599,1.8174.7471,2.4971,1.1609.6802.4143,1.1963.9109,1.5479,1.489.3516.5786.5278,1.3057.5278,2.1809Z"/>
  <path class="cls-1" d="M222.727,56.451h2.2041l2.7202,7.1521c.2344.6255.4458,1.2234.6333,1.7939.1875.571.3281,1.114.4219,1.6296h.0938c.0942-.3904.2422-.9028.4458-1.5356.2031-.6333.4141-1.27.6333-1.9114l2.5557-7.1287h2.228l-5.417,14.3044c-.438,1.1877-1.0049,2.134-1.7002,2.8374-.6958.7034-1.6533,1.0554-2.8726,1.0554-.3755,0-.7036-.02-.9849-.0588-.2812-.0393-.5239-.082-.7271-.1289v-1.6414c.1719.031.3789.062.6216.0938.2422.031.4961.0469.7622.0469.7188,0,1.3013-.2036,1.7466-.6099.4458-.4067.7935-.946,1.0439-1.6182l.6562-1.6648-5.0649-12.616Z"/>
  <path class="cls-1" d="M244.8398,65.5496c0,1.2192-.4536,2.1418-1.3599,2.7671-.9067.6255-2.1265.938-3.6582.938-.876,0-1.6299-.0703-2.2632-.2112-.6328-.1409-1.1919-.3359-1.6763-.5862v-1.876c.5.25,1.1055.4805,1.8174.6917.7109.2112,1.4341.3167,2.1689.3167,1.0474,0,1.8057-.168,2.2744-.5042.4692-.3362.7036-.7856.7036-1.3484,0-.3125-.0859-.594-.2578-.8442-.1724-.25-.481-.5-.9263-.7505-.4458-.2498-1.083-.5312-1.9111-.8442-.813-.3125-1.5088-.625-2.0869-.938-.5786-.3125-1.0244-.6875-1.3369-1.1255-.313-.4375-.4688-1.0002-.4688-1.6885,0-1.063.4336-1.8838,1.3013-2.4622s2.0049-.8677,3.4121-.8677c.7656,0,1.481.0745,2.1455.2229.6646.1487,1.2856.3557,1.8643.6213l-.7036,1.6414c-.5317-.2188-1.0864-.4062-1.665-.5627-.5781-.156-1.1724-.2346-1.7817-.2346-.8442,0-1.4893.1372-1.9351.4106-.4453.2734-.668.6448-.668,1.1138,0,.3442.1016.6372.3047.8794.2031.2427.543.4771,1.02.7036.4766.2266,1.1138.4963,1.9111.8091.7974.2969,1.4775.6018,2.04.9146.563.3127.9927.6917,1.29,1.1372.2969.4453.4453,1.0046.4453,1.6768Z"/>
  <path class="cls-1" d="M252.0859,67.5662c.3125,0,.6333-.0271.9614-.082.3281-.0547.5938-.1133.7974-.1758v1.5708c-.2192.1099-.5317.1995-.938.27-.4067.0703-.7974.1055-1.1724.1055-.6567,0-1.2627-.1138-1.8174-.3401-.5552-.2263-1.0049-.6213-1.3486-1.1843-.3438-.5627-.5156-1.3521-.5156-2.3684v-7.3164h-1.7822v-.9849l1.8057-.8208.8208-2.6731h1.2192v2.8843h3.6348v1.5945h-3.6348v7.2695c0,.7661.1836,1.333.5508,1.7.3672.3677.8403.5513,1.4189.5513Z"/>
  <path class="cls-1" d="M261.2075,56.2164c1.0786,0,2.0049.2346,2.7788.7034.7739.4692,1.3682,1.1299,1.7822,1.9817.4141.8523.6216,1.8489.6216,2.99v1.2427h-8.6064c.0312,1.4229.395,2.5054,1.0908,3.2478.6953.7429,1.6685,1.114,2.9194,1.114.7974,0,1.5044-.0742,2.1221-.2229.6177-.1482,1.2549-.3635,1.9111-.6448v1.8057c-.6411.2812-1.2744.4888-1.8994.6213-.6255.1326-1.3682.1995-2.2275.1995-1.1885,0-2.2397-.2422-3.1543-.7271-.9146-.4844-1.626-1.2075-2.1338-2.1692-.5083-.9614-.7622-2.1375-.7622-3.5291,0-1.3755.2305-2.5562.6919-3.541.4609-.9849,1.1099-1.7432,1.9463-2.2747.8359-.5315,1.8096-.7974,2.9194-.7974ZM261.1841,57.9046c-.9849,0-1.7627.3169-2.333.95-.5708.6331-.9111,1.5125-1.02,2.6379h6.4019c-.0161-1.063-.2661-1.9263-.7505-2.5911-.4849-.6643-1.251-.9968-2.2983-.9968Z"/>
  <path class="cls-1" d="M283.3677,56.2164c1.4229,0,2.4858.3635,3.1895,1.0906.7036.7268,1.0552,1.9033,1.0552,3.5291v8.1841h-2.04v-8.0901c0-1.9854-.8525-2.9783-2.5562-2.9783-1.2192,0-2.0908.3518-2.6147,1.0552s-.7856,1.7278-.7856,3.072v6.9412h-2.04v-8.0901c0-1.9854-.8599-2.9783-2.5796-2.9783-1.2661,0-2.1416.3909-2.6265,1.1726-.4844.7817-.7266,1.9072-.7266,3.3767v6.519h-2.064v-12.5691h1.665l.3052,1.7119h.1172c.3906-.6567.918-1.145,1.5825-1.4658.6646-.3203,1.3721-.4807,2.1226-.4807,1.9697,0,3.2515.7034,3.8457,2.1106h.1172c.4224-.719.9966-1.2505,1.7236-1.5947.7271-.3438,1.4966-.5159,2.3096-.5159Z"/>
  <path class="cls-1" d="M299.689,65.5496c0,1.2192-.4536,2.1418-1.3604,2.7671-.9067.6255-2.126.938-3.6582.938-.8755,0-1.6294-.0703-2.2627-.2112s-1.1924-.3359-1.6768-.5862v-1.876c.5.25,1.106.4805,1.8174.6917s1.4341.3167,2.1689.3167c1.0474,0,1.8057-.168,2.2749-.5042.4688-.3362.7036-.7856.7036-1.3484,0-.3125-.0864-.594-.2583-.8442-.1719-.25-.4805-.5-.9263-.7505-.4453-.2498-1.0825-.5312-1.9111-.8442-.813-.3125-1.5088-.625-2.0869-.938-.5786-.3125-1.0239-.6875-1.3364-1.1255-.313-.4375-.4692-1.0002-.4692-1.6885,0-1.063.4341-1.8838,1.3013-2.4622.8677-.5784,2.0054-.8677,3.4121-.8677.7661,0,1.481.0745,2.146.2229.6641.1487,1.2856.3557,1.8643.6213l-.7036,1.6414c-.5317-.2188-1.0869-.4062-1.665-.5627-.5786-.156-1.1724-.2346-1.7822-.2346-.8442,0-1.4893.1372-1.9346.4106-.4458.2734-.6685.6448-.6685,1.1138,0,.3442.1016.6372.3052.8794.2026.2427.543.4771,1.02.7036.4766.2266,1.1138.4963,1.9111.8091.7974.2969,1.4771.6018,2.04.9146s.9927.6917,1.2896,1.1372c.2969.4453.4458,1.0046.4458,1.6768Z"/>
  <g>
    <polygon class="cls-2" points="68.6619 41.4665 45.1956 45.6043 45.1956 24.5186 21.7287 1.0518 48.7395 1.0523 68.6619 20.9744 68.6619 41.4665"/>
    <polygon class="cls-2" points=".6434 28.6563 24.1097 24.5186 24.1097 45.6043 47.5765 69.0712 20.5657 69.0706 .6434 49.1484 .6434 28.6563"/>
  </g>
</svg>